# xmcd CD database file
#
# Track frame offsets:
#	150
#	16885
#	33571
#
# Disc length: 608 seconds
#
# Revision: 0
# Processed by: cddbd v1.5.1PL2 Copyright (c) Steve Scherf et al.
# Submitted via: CDex 1.51
#
DISCID=1a025e03
DTITLE=平野綾 - ギャラクシーエンジェル?　キャラクターファイル?　「カルーア・マジョラム」
DYEAR=2005
DGENRE=Game
TTITLE0=ミラクルＳ・Ｏ・Ｓ
TTITLE1=ミラクルＳ・Ｏ・Ｓ *karaoke
TTITLE2=Voice Message
EXTD=YEAR: 2005
EXTT0=
EXTT1=
EXTT2=
PLAYORDER=
